<svg preserveAspectRatio="xMidYMid meet" focusable="false" width="0" height="0" visibility="hidden"
     style="pointer-events: none;position: absolute;" xmlns="http://www.w3.org/2000/svg">
    <symbol id="chevron-right" fill="currentColor" viewBox="0 0 16 16">
        <path d="M11 8L6 13L5.3 12.3L9.6 8L5.3 3.7L6 3L11 8Z"/>
    </symbol>
    <symbol id="chevron-left" viewBox="0 0 16 16" fill="currentColor">
        <path d="M5 8L10 3L10.7 3.7L6.4 8L10.7 12.3L10 13L5 8Z"/>
    </symbol>
    <symbol id="chevron-down" viewBox="0 0 16 16" fill="currentColor">
        <path d="M8 11L3 5.99999L3.7 5.29999L8 9.59999L12.3 5.29999L13 5.99999L8 11Z"/>
    </symbol>
    <symbol id="chevron-up" viewBox="0 0 16 16" fill="currentColor">
        <path d="M8 5L13 10L12.3 10.7L8 6.4L3.7 10.7L3 10L8 5Z"/>
    </symbol>
    <symbol id="location" viewBox="0 0 16 16" fill="currentColor">
        <path fill-rule="evenodd" clip-rule="evenodd"
              d="M3.78226 10.0257L8.00001 15L12.2195 10.0236C12.2419 9.9971 12.3919 9.7999 12.3919 9.7999L12.3926 9.79865C13.1128 8.84991 13.5018 7.69111 13.5 6.5C13.5 5.04131 12.9205 3.64236 11.8891 2.61091C10.8576 1.57946 9.4587 1 8.00001 1C6.54131 1 5.14237 1.57946 4.11092 2.61091C3.07947 3.64236 2.50001 5.04131 2.50001 6.5C2.49832 7.6916 2.88761 8.85084 3.60816 9.7999C3.60816 9.7999 3.75831 9.9971 3.78226 10.0257ZM4.43027 9.22903C4.416 9.21025 4.4064 9.1976 4.40626 9.1975C3.81725 8.42167 3.4989 7.47409 3.50001 6.5C3.50001 5.30653 3.97411 4.16193 4.81802 3.31802C5.66194 2.47411 6.80653 2 8.00001 2C9.19348 2 10.3381 2.47411 11.182 3.31802C12.0259 4.16193 12.5 5.30653 12.5 6.5C12.5012 7.47356 12.183 8.42064 11.5944 9.1961C11.5942 9.1965 11.477 9.35135 11.455 9.37895L8.00001 13.4539L4.54956 9.3847C4.53056 9.36107 4.46589 9.27592 4.43027 9.22903ZM6.61108 8.57868C7.0222 8.85338 7.50555 9 8 9C8.66281 8.99925 9.29826 8.73561 9.76693 8.26693C10.2356 7.79826 10.4992 7.16281 10.5 6.5C10.5 6.00555 10.3534 5.5222 10.0787 5.11108C9.80397 4.69995 9.41352 4.37952 8.95671 4.1903C8.4999 4.00108 7.99723 3.95157 7.51228 4.04804C7.02732 4.1445 6.58187 4.3826 6.23223 4.73223C5.8826 5.08187 5.6445 5.52732 5.54804 6.01228C5.45157 6.49723 5.50108 6.99989 5.6903 7.45671C5.87952 7.91352 6.19995 8.30397 6.61108 8.57868ZM7.16665 5.2528C7.41332 5.08797 7.70333 5 8 5C8.39769 5.00044 8.77897 5.15861 9.06018 5.43982C9.34139 5.72103 9.49956 6.10231 9.5 6.5C9.5 6.79667 9.41203 7.08668 9.24721 7.33336C9.08238 7.58003 8.84812 7.77229 8.57403 7.88582C8.29994 7.99935 7.99834 8.02906 7.70737 7.97118C7.41639 7.9133 7.14912 7.77044 6.93934 7.56066C6.72956 7.35088 6.5867 7.08361 6.52882 6.79264C6.47095 6.50167 6.50065 6.20007 6.61418 5.92598C6.72771 5.65189 6.91997 5.41762 7.16665 5.2528Z"/>
    </symbol>
    <symbol id="save" viewBox="0 0 16 16" fill="currentColor">
        <path d="M13.855 4.64501L11.355 2.14501C11.3083 2.09867 11.2529 2.06201 11.192 2.03712C11.131 2.01224 11.0658 1.99963 11 2.00001H3C2.73478 2.00001 2.48043 2.10537 2.29289 2.2929C2.10536 2.48044 2 2.73479 2 3.00001V13C2 13.2652 2.10536 13.5196 2.29289 13.7071C2.48043 13.8947 2.73478 14 3 14H13C13.2652 14 13.5196 13.8947 13.7071 13.7071C13.8946 13.5196 14 13.2652 14 13V5.00001C14.0004 4.93421 13.9878 4.86897 13.9629 4.80806C13.938 4.74714 13.9013 4.69173 13.855 4.64501ZM6 3.00001H10V5.00001H6V3.00001ZM10 13H6V9.00001H10V13ZM11 13V9.00001C11 8.73479 10.8946 8.48044 10.7071 8.2929C10.5196 8.10537 10.2652 8.00001 10 8.00001H6C5.73478 8.00001 5.48043 8.10537 5.29289 8.2929C5.10536 8.48044 5 8.73479 5 9.00001V13H3V3.00001H5V5.00001C5 5.26523 5.10536 5.51958 5.29289 5.70712C5.48043 5.89465 5.73478 6.00001 6 6.00001H10C10.2652 6.00001 10.5196 5.89465 10.7071 5.70712C10.8946 5.51958 11 5.26523 11 5.00001V3.20501L13 5.20501V13H11Z"/>
    </symbol>
    <symbol id="clean" viewBox="0 0 16 16" fill="currentColor">
        <path fill-rule="evenodd" clip-rule="evenodd"
              d="M8.17468 8.79871C8.38532 9.16428 8.49789 9.5781 8.50145 10C8.50145 10.0268 8.53075 12.772 10.3006 14.1C10.3846 14.163 10.4466 14.2507 10.4779 14.3509C10.5091 14.4511 10.5081 14.5586 10.4749 14.6581C10.4418 14.7577 10.3781 14.8443 10.293 14.9056C10.2078 14.967 10.1055 15 10.0006 15H2.505C2.37579 15.0001 2.25155 14.9502 2.15834 14.8607C2.06512 14.7712 2.01017 14.6491 2.005 14.52C1.99815 14.3411 1.8532 10.12 3.725 8.31445C4.06432 7.98 4.48209 7.73598 4.94009 7.6047C5.39808 7.47343 5.88168 7.45909 6.34665 7.563L10.1346 1L11 1.5L7.29925 7.91355C7.66248 8.12822 7.96404 8.43313 8.17468 8.79871ZM7.03456 8.9411C6.74828 8.66144 6.36519 8.50293 5.965 8.49855C5.71451 8.47265 5.46138 8.4968 5.2203 8.56959C4.97923 8.64239 4.75504 8.76239 4.56075 8.9226L7.51045 10.2344C7.503 10.104 7.50205 10.019 7.50205 10C7.48829 9.60003 7.32085 9.22076 7.03456 8.9411ZM7 12.5C7.07051 13.066 7.32516 13.593 7.7247 14H8.7984C8.23501 13.2265 7.84901 12.3383 7.66785 11.3987L3.90135 9.72365C3.145 11.054 3.0155 13.0818 3 14H4.3326C4.14391 13.3486 4.03228 12.6774 4 12H5C5.04179 12.6794 5.16691 13.3511 5.37255 14H6.4842C6.20215 13.5473 6.03586 13.0322 6 12.5H7ZM13 10H10V9H13V10ZM15 14H12V13H15V14ZM11 12H14V11H11V12Z"/>
    </symbol>
    <symbol id="ruler" viewBox="0 0 16 16" fill="currentColor">
        <path d="M14.705 10.8351L5.17 1.29011C5.07713 1.19714 4.96684 1.12338 4.84544 1.07305C4.72405 1.02273 4.59392 0.996826 4.4625 0.996826C4.33109 0.996826 4.20096 1.02273 4.07956 1.07305C3.95817 1.12338 3.84788 1.19714 3.755 1.29011L1.295 3.75511C1.10875 3.94248 1.00421 4.19593 1.00421 4.46011C1.00421 4.7243 1.10875 4.97775 1.295 5.16511L10.83 14.7101C10.9234 14.8028 11.0343 14.8761 11.1561 14.9259C11.2779 14.9756 11.4084 15.0009 11.54 15.0001C11.8041 15.0003 12.0575 14.8961 12.245 14.7101L14.705 12.2451C14.8913 12.0577 14.9958 11.8043 14.9958 11.5401C14.9958 11.2759 14.8913 11.0225 14.705 10.8351ZM11.54 14.0001L2 4.46011L4.46 2.00011L6.355 3.89511L5.23 5.00011L5.935 5.70511L7.06 4.60011L9.125 6.66511L8 7.79011L8.71 8.50011L9.835 7.37511L11.9 9.44011L10.775 10.5651L11.5 11.2701L12.625 10.1451L14 11.5401L11.54 14.0001Z"
        />
    </symbol>
    <symbol id="warning" viewBox="0 0 16 16" fill="currentColor">
        <path fill-rule="evenodd" clip-rule="evenodd"
              d="M1.25478 14.9357C1.32965 14.9779 1.4141 15 1.5 15H14.5C14.5859 15 14.6704 14.9779 14.7452 14.9357C14.8201 14.8936 14.8828 14.8329 14.9274 14.7595C14.972 14.686 14.9969 14.6024 14.9997 14.5165C15.0026 14.4307 14.9832 14.3455 14.9436 14.2693L8.4436 1.76931C8.40138 1.68812 8.3377 1.62008 8.25948 1.5726C8.18126 1.52511 8.09151 1.5 8 1.5C7.9085 1.5 7.81875 1.52511 7.74053 1.5726C7.66231 1.62008 7.59862 1.68812 7.5564 1.76931L1.0564 14.2693C1.01677 14.3455 0.997436 14.4307 1.00027 14.5165C1.00311 14.6024 1.02802 14.686 1.0726 14.7595C1.11717 14.8329 1.17992 14.8936 1.25478 14.9357ZM13.6757 13.9984L13.6747 14H2.32535L2.32435 13.9984L7.999 3.08571H8.001L13.6757 13.9984ZM8.5 6H7.5V10.5H8.5V6ZM8 11.5C7.85166 11.5 7.70666 11.544 7.58332 11.6264C7.45999 11.7088 7.36386 11.8259 7.30709 11.963C7.25033 12.1 7.23547 12.2508 7.26441 12.3963C7.29335 12.5418 7.36478 12.6754 7.46967 12.7803C7.57456 12.8852 7.7082 12.9566 7.85368 12.9856C7.99917 13.0145 8.14997 12.9997 8.28701 12.9429C8.42406 12.8861 8.54119 12.79 8.6236 12.6667C8.70601 12.5433 8.75 12.3983 8.75 12.25C8.75 12.0511 8.67098 11.8603 8.53033 11.7197C8.38968 11.579 8.19891 11.5 8 11.5Z"
        />
    </symbol>
    <symbol id="pin" viewBox="0 0 16 16" fill="currentColor">
        <path d="M14.295 6.655L15 5.95L10 1L9.345 1.71L9.935 2.3L4.19 7.16L3.33 6.305L2.625 7L5.455 9.84L1 14.29L1.705 15L6.16 10.545L9 13.375L9.695 12.665L8.84 11.81L13.7 6.065L14.295 6.655ZM8.13 11.1L4.9 7.87L10.645 3L13 5.355L8.13 11.1Z"/>
    </symbol>
    <symbol id="info" viewBox="0 0 16 16" fill="currentColor">
        <path fill-rule="evenodd" clip-rule="evenodd" d="M4.11101 13.8203C5.26216 14.5895 6.61553 15 8 15C9.85652 15 11.637 14.2625 12.9497 12.9497C14.2625 11.637 15 9.85652 15 8C15 6.61553 14.5895 5.26216 13.8203 4.11101C13.0511 2.95987 11.9579 2.06266 10.6788 1.53285C9.3997 1.00303 7.99224 0.86441 6.63437 1.13451C5.2765 1.4046 4.02922 2.07129 3.05026 3.05026C2.07129 4.02922 1.4046 5.2765 1.13451 6.63437C0.86441 7.99224 1.00303 9.3997 1.53285 10.6788C2.06266 11.9579 2.95987 13.0511 4.11101 13.8203ZM4.66658 3.01119C5.65328 2.3519 6.81332 2 8 2C9.5913 2 11.1174 2.63214 12.2426 3.75736C13.3679 4.88258 14 6.4087 14 8C14 9.18669 13.6481 10.3467 12.9888 11.3334C12.3295 12.3201 11.3925 13.0892 10.2961 13.5433C9.19975 13.9974 7.99335 14.1162 6.82946 13.8847C5.66558 13.6532 4.59648 13.0818 3.75736 12.2426C2.91825 11.4035 2.3468 10.3344 2.11529 9.17054C1.88378 8.00666 2.0026 6.80026 2.45673 5.7039C2.91085 4.60755 3.67989 3.67047 4.66658 3.01119ZM8 4C7.85166 4 7.70666 4.04399 7.58332 4.1264C7.45999 4.20881 7.36386 4.32594 7.30709 4.46299C7.25033 4.60003 7.23547 4.75083 7.26441 4.89632C7.29335 5.0418 7.36478 5.17544 7.46967 5.28033C7.57456 5.38522 7.7082 5.45665 7.85368 5.48559C7.99917 5.51453 8.14997 5.49968 8.28701 5.44291C8.42406 5.38614 8.54119 5.29001 8.6236 5.16668C8.70601 5.04334 8.75 4.89834 8.75 4.75C8.75 4.55109 8.67098 4.36032 8.53033 4.21967C8.38968 4.07902 8.19891 4 8 4ZM8.5 11V7H6.5V8H7.5V11H6V12H10V11H8.5Z" />
    </symbol>
</svg>